HIERARCHY
ROOT root
{
	OFFSET 0.000000 0.000000 0.000000
	CHANNELS 6 Xposition Yposition Zposition Zrotation Yrotation Xrotation
	JOINT lhip
	{
		OFFSET 0.058581 -0.082280 -0.017664
		CHANNELS 3 Zrotation Yrotation Xrotation
		JOINT lknee
		{
			OFFSET 0.043451 -0.386469 0.008037
			CHANNELS 3 Zrotation Yrotation Xrotation
			JOINT lankle
			{
				OFFSET -0.014790 -0.426874 -0.037428
				CHANNELS 3 Zrotation Yrotation Xrotation
				JOINT ltoe
				{
					OFFSET 0.041054 -0.060286 0.122042
					CHANNELS 3 Zrotation Yrotation Xrotation
					End Site
					{
						OFFSET 0.000000 0.000000 0.000000
					}
				}
			}
		}
	}
	JOINT rhip
	{
		OFFSET -0.060310 -0.090513 -0.013543
		CHANNELS 3 Zrotation Yrotation Xrotation
		JOINT rknee
		{
			OFFSET -0.043257 -0.383688 -0.004843
			CHANNELS 3 Zrotation Yrotation Xrotation
			JOINT rankle
			{
				OFFSET 0.019056 -0.420046 -0.034562
				CHANNELS 3 Zrotation Yrotation Xrotation
				JOINT rtoe
				{
					OFFSET -0.034840 -0.062106 0.130323
					CHANNELS 3 Zrotation Yrotation Xrotation
					End Site
					{
						OFFSET 0.000000 0.000000 0.000000
					}
				}
			}
		}
	}
	JOINT lowerback
	{
		OFFSET 0.004439 0.124404 -0.038385
		CHANNELS 3 Zrotation Yrotation Xrotation
		JOINT upperback
		{
			OFFSET 0.004488 0.137956 0.026820
			CHANNELS 3 Zrotation Yrotation Xrotation
			JOINT chest
			{
				OFFSET -0.002265 0.056032 0.002855
				CHANNELS 3 Zrotation Yrotation Xrotation
				JOINT lowerneck
				{
					OFFSET -0.013390 0.211636 -0.033468
					CHANNELS 3 Zrotation Yrotation Xrotation
					JOINT upperneck
					{
						OFFSET 0.010113 0.088937 0.050410
						CHANNELS 3 Zrotation Yrotation Xrotation
						End Site
						{
							OFFSET 0.000000 0.000000 0.000000
						}
					}
				}
				JOINT lclavicle
				{
					OFFSET 0.071702 0.114000 -0.018898
					CHANNELS 3 Zrotation Yrotation Xrotation
					JOINT lshoulder
					{
						OFFSET 0.122921 0.045205 -0.019046
						CHANNELS 3 Zrotation Yrotation Xrotation
						JOINT lelbow
						{
							OFFSET 0.255332 -0.015649 -0.022946
							CHANNELS 3 Zrotation Yrotation Xrotation
							JOINT lwrist
							{
								OFFSET 0.265709 0.012698 -0.007375
								CHANNELS 3 Zrotation Yrotation Xrotation
								End Site
								{
									OFFSET 0.000000 0.000000 0.000000
								}
							}
						}
					}
				}
				JOINT rclavicle
				{
					OFFSET -0.082954 0.112472 -0.023707
					CHANNELS 3 Zrotation Yrotation Xrotation
					JOINT rshoulder
					{
						OFFSET -0.113228 0.046853 -0.008472
						CHANNELS 3 Zrotation Yrotation Xrotation
						JOINT relbow
						{
							OFFSET -0.260127 -0.014369 -0.031269
							CHANNELS 3 Zrotation Yrotation Xrotation
							JOINT rwrist
							{
								OFFSET -0.269108 0.006794 -0.006027
								CHANNELS 3 Zrotation Yrotation Xrotation
								End Site
								{
									OFFSET 0.000000 0.000000 0.000000
								}
							}
						}
					}
				}
			}
		}
	}
}
MOTION
Frames: 8
Frame Time: 0.033333
-1.746398 0.003804 0.989492 -125.099533 -6.555204 86.216578 4.657600 -9.294593 -19.731569 1.603275 0.691644 19.776685 -0.014423 15.650247 -12.268523 0.000000 -0.000000 0.000000 13.516948 4.534564 9.971530 -5.316887 10.747532 6.496633 -5.603205 -11.726904 -15.621025 0.000000 -0.000000 0.000000 -7.159093 7.134294 9.940279 2.945299 -4.101914 -0.440704 1.369025 -1.113830 6.391670 12.872992 -18.107713 -4.649255 14.041140 -29.652586 -3.059708 -23.368502 6.437546 1.649208 -61.021283 1.415107 13.472234 -11.966436 -10.458084 19.079997 -16.416635 1.656705 -17.649906 21.581414 2.816705 -4.564580 53.184843 11.298389 22.170316 0.208189 46.039809 21.413430 -8.976020 1.251105 -15.309430 
-1.773873 0.018295 0.986665 -128.341383 -6.333224 86.954114 3.589397 -8.130709 -19.205751 2.884088 -3.687481 6.681328 -1.076788 12.002838 -12.952801 0.000000 -0.000000 0.000000 13.015950 3.110555 11.383540 -5.068568 10.834731 7.715540 -4.995871 -10.572664 -16.915110 0.000000 -0.000000 0.000000 -6.409146 7.319716 9.386563 2.558473 -4.150927 0.249842 1.175110 -0.594373 6.044069 12.633464 -17.163505 -4.856234 13.356936 -30.704783 -2.080153 -23.298941 5.217015 0.051797 -59.724094 2.117152 13.386513 -8.858850 -10.577867 22.238234 -14.771540 3.601870 -6.813688 21.559172 4.021816 -5.191976 52.867493 11.029985 21.109923 1.438032 49.290478 24.201826 -4.566679 1.646776 -13.910134 
-1.802591 0.034326 0.982276 -131.180509 -6.272113 87.941557 2.334913 -6.432093 -19.325508 3.112968 -7.569170 -1.233391 -2.715889 8.241605 -13.366841 0.000000 -0.000000 0.000000 11.828106 2.024340 12.719960 -4.801463 10.706346 8.499944 -3.548138 -8.246928 -17.857245 0.000000 -0.000000 0.000000 -5.945018 7.093027 9.068404 2.350067 -4.276538 0.061716 0.969850 0.084207 5.489617 12.303524 -16.135259 -4.185207 13.239922 -30.814161 -2.173426 -23.594897 4.231397 -1.192809 -57.152815 1.840204 12.781595 -6.895974 -10.275105 20.364142 -14.094681 3.172715 -3.886693 21.668581 4.390695 -5.727481 52.859432 10.580872 21.073120 2.750686 50.861331 25.690559 -3.941142 1.699626 -13.401992 
-1.831996 0.051536 0.977815 -133.826316 -6.168588 88.564236 1.733969 -7.100925 -20.276728 1.567490 -10.689679 1.611170 -2.675471 7.111218 -13.189082 0.000000 -0.000000 0.000000 10.657313 1.815881 13.768916 -3.813063 12.480570 10.845096 -3.265576 -7.954942 -18.336078 0.000000 -0.000000 0.000000 -5.335699 7.119623 8.830109 2.260142 -4.411729 -0.331363 0.629847 0.394883 5.449033 11.792588 -15.801657 -4.150212 12.879924 -30.355377 -1.729175 -23.700495 3.403064 -2.036657 -54.358748 0.584747 11.701129 -5.216767 -10.098153 17.037452 -10.910099 3.193094 -3.237611 22.060702 5.031736 -5.523125 52.796329 10.467135 21.403036 3.014137 49.640065 25.447899 -9.733813 1.537312 -11.722066 
-1.863075 0.072987 0.973860 -136.429406 -5.776984 88.321968 1.513495 -8.890088 -18.340100 0.697393 -12.843260 5.087107 -2.788983 5.844297 -11.947624 0.000000 -0.000000 0.000000 8.902416 0.668767 15.507941 -2.431939 12.642575 13.564202 -1.609433 -4.983211 -17.556259 0.000000 -0.000000 0.000000 -5.161828 7.248561 8.347793 2.654420 -4.865672 0.785376 0.608059 1.014358 4.673214 11.854425 -15.065183 -3.786605 12.145538 -30.533036 -1.316385 -22.882231 3.608646 -3.075175 -52.957838 -1.060755 10.517085 -2.976179 -10.889834 14.215171 -9.071659 2.362227 -4.538752 22.993705 4.950424 -5.186148 53.006283 10.084960 21.213793 1.953448 46.374491 24.204842 -17.411122 2.846936 -8.183612 
-1.891612 0.094561 0.973858 -139.455459 -5.822703 88.902504 1.500097 -9.109174 -16.496103 0.884865 -11.819556 5.559640 -2.447764 8.908375 -6.017602 0.000000 -0.000000 0.000000 6.833150 1.395315 13.643937 -0.028740 11.379768 20.870341 0.499330 -2.951583 -13.486389 0.000000 -0.000000 0.000000 -5.663394 6.868118 7.514017 3.105553 -4.135516 -0.122724 0.516378 1.020117 5.196394 11.617378 -14.724149 -2.785482 11.925103 -30.383639 -0.369487 -22.604745 3.302531 -3.329532 -50.936453 -3.315184 10.039165 -1.182280 -11.229666 9.425607 -9.440133 2.256941 -5.584226 23.886846 4.522386 -5.409292 53.198207 8.877035 21.701810 -0.124195 42.489741 21.642756 -15.382051 2.198043 -7.265367 
-1.918664 0.120630 0.979306 -142.097769 -6.309254 87.901402 1.468400 -9.375242 -12.400478 -0.487981 -11.635493 6.380518 -1.807901 11.399125 -5.689790 0.000000 -0.000000 0.000000 3.763853 1.634520 10.817809 2.581043 7.930374 31.657745 5.719674 -0.347771 -2.879118 0.000000 -0.000000 0.000000 -6.343298 6.400461 7.865703 3.099147 -3.996011 0.031927 0.206604 0.977891 5.275594 11.650352 -13.934204 -1.563958 12.247521 -29.610621 -0.413479 -21.272410 2.108272 -3.019203 -49.126928 -5.329395 9.204894 0.161814 -11.678389 5.635107 -10.213728 2.572452 -4.593331 23.531413 4.505335 -5.510214 55.313074 7.209062 21.678425 -1.760155 37.086166 18.411701 -12.398105 1.389183 -6.492310 
-1.943021 0.145524 0.984946 -144.006938 -6.691840 86.520508 0.440987 -8.911812 -7.171128 -1.126729 -10.809881 5.221473 -0.773126 13.913788 -6.207659 0.000000 -0.000000 0.000000 1.152632 1.841081 5.311834 3.956392 3.763838 45.073217 8.440146 0.621739 6.007020 0.000000 -0.000000 0.000000 -6.540697 4.875888 9.395228 3.028076 -3.745010 0.013887 0.025325 0.825921 5.202955 10.823886 -14.164489 -0.459645 12.583918 -28.321054 -1.046328 -20.312675 0.250057 -2.931815 -47.039243 -6.913346 7.852607 0.825037 -12.425684 2.663512 -12.415763 3.623874 -1.994155 22.286860 5.202515 -4.852587 56.314977 4.879130 21.335574 -2.363933 34.625127 17.105284 -9.876800 1.536797 -3.873103 
